<svg xmlns="http://www.w3.org/2000/svg" xmlns:xlink="http://www.w3.org/1999/xlink" viewBox="0 0 483.28 423.65"><defs><style>.cls-1{isolation:isolate;}.cls-14,.cls-2{mix-blend-mode:overlay;}.cls-14,.cls-3{fill:#fff;}.cls-4{fill:#142038;}.cls-5{opacity:0.5;fill:url(#linear-gradient);}.cls-6{opacity:0.7;fill:url(#linear-gradient-2);}.cls-7{fill:url(#linear-gradient-3);}.cls-10,.cls-15,.cls-8{mix-blend-mode:multiply;}.cls-8{fill:url(#linear-gradient-4);}.cls-9{fill:url(#linear-gradient-5);}.cls-10{fill:url(#linear-gradient-6);}.cls-11{fill:#637294;}.cls-12{fill:#49546e;}.cls-13{fill:url(#linear-gradient-7);}.cls-14{opacity:0.4;}.cls-15{fill:url(#linear-gradient-8);}.cls-16{fill:url(#linear-gradient-9);}.cls-17{fill:url(#linear-gradient-10);}.cls-18{fill:url(#linear-gradient-11);}.cls-19{fill:#ffc9dc;}</style><linearGradient id="linear-gradient" x1="241.58" y1="166.84" x2="241.58" y2="415.5" gradientUnits="userSpaceOnUse"><stop offset="0" stop-color="#a24df7"/><stop offset="0.12" stop-color="#a24df7" stop-opacity="0.87"/><stop offset="0.56" stop-color="#a24df7" stop-opacity="0.41"/><stop offset="0.86" stop-color="#a24df7" stop-opacity="0.11"/><stop offset="1" stop-color="#a24df7" stop-opacity="0"/></linearGradient><linearGradient id="linear-gradient-2" x1="241.58" y1="166.84" x2="241.58" y2="415.5" xlink:href="#linear-gradient"/><linearGradient id="linear-gradient-3" x1="204.87" y1="192.58" x2="199.7" y2="167.42" gradientUnits="userSpaceOnUse"><stop offset="0" stop-color="#d8dce8"/><stop offset="1" stop-color="#bcc1d1"/></linearGradient><linearGradient id="linear-gradient-4" x1="202.23" y1="178.44" x2="199.58" y2="165.52" xlink:href="#linear-gradient-3"/><linearGradient id="linear-gradient-5" x1="2316.14" y1="192.58" x2="2310.98" y2="167.42" gradientTransform="matrix(-1, 0, 0, 1, 2594.43, 0)" xlink:href="#linear-gradient-3"/><linearGradient id="linear-gradient-6" x1="2313.51" y1="178.44" x2="2310.86" y2="165.52" gradientTransform="matrix(-1, 0, 0, 1, 2594.43, 0)" xlink:href="#linear-gradient-3"/><linearGradient id="linear-gradient-7" x1="173.15" y1="109.96" x2="310" y2="109.96" gradientUnits="userSpaceOnUse"><stop offset="0" stop-color="#82c8ff"/><stop offset="1" stop-color="#538fbd"/></linearGradient><linearGradient id="linear-gradient-8" x1="205.69" y1="108.83" x2="250.58" y2="137.24" xlink:href="#linear-gradient-3"/><linearGradient id="linear-gradient-9" x1="184.85" y1="113.08" x2="255.99" y2="158.12" xlink:href="#linear-gradient-3"/><linearGradient id="linear-gradient-10" x1="122.8" y1="161.92" x2="360.35" y2="161.92" gradientUnits="userSpaceOnUse"><stop offset="0" stop-color="#b5bdd1"/><stop offset="1" stop-color="#9ba8c7"/></linearGradient><linearGradient id="linear-gradient-11" x1="199.58" y1="142.67" x2="301.35" y2="142.67" gradientUnits="userSpaceOnUse"><stop offset="0" stop-color="#ff5f96"/><stop offset="1" stop-color="#db4278"/></linearGradient></defs><title>Asset 1</title><g class="cls-1"><g id="Layer_2" data-name="Layer 2"><g id="OBJECTS"><g class="cls-2"><circle class="cls-3" cx="10.61" cy="303.48" r="0.48"/><path class="cls-3" d="M12,360a.47.47,0,1,0,.47.47A.47.47,0,0,0,12,360Z"/><path class="cls-3" d="M27.38,353.25a.52.52,0,0,0-.52.53.52.52,0,0,0,.52.52.52.52,0,0,0,.53-.52A.53.53,0,0,0,27.38,353.25Z"/><path class="cls-3" d="M42.32,346.05a.57.57,0,0,0-.57.57.56.56,0,0,0,.57.57.57.57,0,0,0,.57-.57A.58.58,0,0,0,42.32,346.05Z"/><path class="cls-3" d="M55.59,360.43a.58.58,0,1,0,.58.58A.58.58,0,0,0,55.59,360.43Z"/><path class="cls-3" d="M78.84,333.66a.51.51,0,0,0-.51.52.52.52,0,1,0,.51-.52Z"/><path class="cls-3" d="M93.15,336.94a.51.51,0,1,0,.51.51A.51.51,0,0,0,93.15,336.94Z"/><path class="cls-3" d="M108,337.5a.64.64,0,1,0,.63.63A.63.63,0,0,0,108,337.5Z"/><path class="cls-3" d="M127.69,315.74a.56.56,0,0,0-.57.57.57.57,0,0,0,.57.57.58.58,0,0,0,.57-.57A.57.57,0,0,0,127.69,315.74Z"/><path class="cls-3" d="M140.19,324.78a.61.61,0,1,0,0,1.21.61.61,0,1,0,0-1.21Z"/><path class="cls-3" d="M149.1,363a.51.51,0,0,0-.51.51.51.51,0,1,0,1,0A.51.51,0,0,0,149.1,363Z"/><path class="cls-3" d="M162.2,372.08a.48.48,0,1,0,.48.48A.47.47,0,0,0,162.2,372.08Z"/><path class="cls-3" d="M183.15,331.6a.59.59,0,1,0,0,1.17.59.59,0,0,0,0-1.17Z"/><path class="cls-3" d="M196.16,340.55a.63.63,0,1,0,.62.63A.63.63,0,0,0,196.16,340.55Z"/><path class="cls-3" d="M210.33,343a.61.61,0,1,0,.61.61A.61.61,0,0,0,210.33,343Z"/><path class="cls-3" d="M221.94,361.46a.49.49,0,1,0,.48.48A.48.48,0,0,0,221.94,361.46Z"/><path class="cls-3" d="M239.18,347.15a.61.61,0,1,0,.6.61A.61.61,0,0,0,239.18,347.15Z"/><path class="cls-3" d="M253.87,344.59a.61.61,0,0,0-.61.61.61.61,0,1,0,1.22,0A.61.61,0,0,0,253.87,344.59Z"/><path class="cls-3" d="M268.25,347.28a.55.55,0,1,0,.55.54A.55.55,0,0,0,268.25,347.28Z"/><path class="cls-3" d="M279.88,368.57a.62.62,0,0,0,0,1.23.62.62,0,0,0,0-1.23Z"/><path class="cls-3" d="M295.9,356.45a.45.45,0,1,0,0,.9.45.45,0,1,0,0-.9Z"/><path class="cls-3" d="M308.35,369.81a.54.54,0,0,0-.54.54.55.55,0,0,0,.54.55.55.55,0,0,0,.55-.55A.55.55,0,0,0,308.35,369.81Z"/><path class="cls-3" d="M323.52,367.06a.5.5,0,1,0,.49.49A.49.49,0,0,0,323.52,367.06Z"/><path class="cls-3" d="M341,340.35a.45.45,0,1,0,.45.45A.45.45,0,0,0,341,340.35Z"/><path class="cls-3" d="M355.73,339.62a.6.6,0,1,0,.61.6A.6.6,0,0,0,355.73,339.62Z"/><path class="cls-3" d="M367.43,366.55a.63.63,0,1,0,.62.63A.63.63,0,0,0,367.43,366.55Z"/><path class="cls-3" d="M382.13,366.36a.55.55,0,1,0,.54.55A.55.55,0,0,0,382.13,366.36Z"/><path class="cls-3" d="M394.43,381.3a.56.56,0,0,0-.55.56.56.56,0,0,0,1.11,0A.56.56,0,0,0,394.43,381.3Z"/><path class="cls-3" d="M410.83,370a.47.47,0,1,0,.47.46A.47.47,0,0,0,410.83,370Z"/><path class="cls-3" d="M422.87,391.8a.47.47,0,1,0,.47.46A.47.47,0,0,0,422.87,391.8Z"/><path class="cls-3" d="M440,376.41a.54.54,0,1,0,.54.54A.54.54,0,0,0,440,376.41Z"/><path class="cls-3" d="M454.37,379.09a.45.45,0,1,0,.45.45A.45.45,0,0,0,454.37,379.09Z"/><path class="cls-3" d="M22,250.85a.48.48,0,1,0,.48.47A.48.48,0,0,0,22,250.85Z"/><path class="cls-3" d="M38.11,248.58a.5.5,0,1,0,0,1,.5.5,0,1,0,0-1Z"/><path class="cls-3" d="M48.81,263.05a.6.6,0,1,0,.6.6A.6.6,0,0,0,48.81,263.05Z"/><path class="cls-3" d="M122.12,242.9a.51.51,0,1,0,.51.51A.51.51,0,0,0,122.12,242.9Z"/><path class="cls-3" d="M76.87,270.94a.54.54,0,1,0,.54.53A.53.53,0,0,0,76.87,270.94Z"/><path class="cls-3" d="M88.69,282a.49.49,0,1,0,.49.49A.49.49,0,0,0,88.69,282Z"/><path class="cls-3" d="M131.75,264.89a.64.64,0,1,0-.64-.63A.64.64,0,0,0,131.75,264.89Z"/><path class="cls-3" d="M113.53,297.22a.56.56,0,0,0-.56.56.56.56,0,1,0,1.12,0A.56.56,0,0,0,113.53,297.22Z"/><path class="cls-3" d="M175.32,149.49a.56.56,0,0,0-.77-.15.54.54,0,0,0-.15.77.55.55,0,0,0,.77.15A.56.56,0,0,0,175.32,149.49Z"/><path class="cls-3" d="M178.13,163.65a.59.59,0,0,0-1,.66.59.59,0,1,0,1-.66Z"/><path class="cls-3" d="M189.72,93a.61.61,0,0,0,0,1.21.61.61,0,1,0,0-1.21Z"/><path class="cls-3" d="M163.62,353.82a.56.56,0,1,0,.56.56A.56.56,0,0,0,163.62,353.82Z"/><path class="cls-3" d="M187.93,306.46a.47.47,0,1,0,0,.94.47.47,0,1,0,0-.94Z"/><path class="cls-3" d="M202.51,308.56a.54.54,0,0,0-.54.54.54.54,0,0,0,1.08,0A.54.54,0,0,0,202.51,308.56Z"/><path class="cls-3" d="M213.06,323.4a.47.47,0,1,0,0,.94.47.47,0,1,0,0-.94Z"/><path class="cls-3" d="M231,312.93a.55.55,0,0,0-.55.54.55.55,0,0,0,.55.55.55.55,0,0,0,.54-.55A.54.54,0,0,0,231,312.93Z"/><path class="cls-3" d="M240.22,335.75a.5.5,0,0,0-.5.5.5.5,0,0,0,1,0A.5.5,0,0,0,240.22,335.75Z"/><path class="cls-3" d="M259.42,321.67a.55.55,0,0,0-.55.54.55.55,0,0,0,.55.55.55.55,0,0,0,.54-.55A.54.54,0,0,0,259.42,321.67Z"/><path class="cls-3" d="M271.74,332.29a.51.51,0,1,0,.5.51A.5.5,0,0,0,271.74,332.29Z"/><path class="cls-3" d="M289.76,322.23a.47.47,0,1,0,.47.47A.47.47,0,0,0,289.76,322.23Z"/><path class="cls-3" d="M297.58,348.17a.64.64,0,0,0,0,1.28.64.64,0,0,0,0-1.28Z"/><path class="cls-3" d="M310.11,357a.58.58,0,1,0,.58.58A.58.58,0,0,0,310.11,357Z"/><path class="cls-3" d="M326.22,352.75a.55.55,0,0,0-.54.55.54.54,0,0,0,.54.54.55.55,0,0,0,.55-.54A.55.55,0,0,0,326.22,352.75Z"/><path class="cls-3" d="M343,333.38a.48.48,0,1,0,.48.47A.48.48,0,0,0,343,333.38Z"/><path class="cls-3" d="M360.08,325.36a.44.44,0,0,0-.43.44.43.43,0,0,0,.43.43.44.44,0,0,0,.44-.43A.44.44,0,0,0,360.08,325.36Z"/><path class="cls-3" d="M363.87,374.45a.56.56,0,0,0-.56.56.56.56,0,0,0,1.12,0A.56.56,0,0,0,363.87,374.45Z"/><path class="cls-3" d="M386.15,352.92a.63.63,0,1,0,.62.62A.63.63,0,0,0,386.15,352.92Z"/><circle class="cls-3" cx="398.82" cy="362.69" r="0.44"/><path class="cls-3" d="M21,98a.58.58,0,0,0-.59.59.59.59,0,1,0,1.17,0A.58.58,0,0,0,21,98Z"/><path class="cls-3" d="M8.12,81.76a.58.58,0,0,0-.57.57.58.58,0,0,0,1.15,0A.58.58,0,0,0,8.12,81.76Z"/><path class="cls-3" d="M.59,66.72a.59.59,0,0,0-.59.59.58.58,0,0,0,.59.59.58.58,0,0,0,.59-.59A.59.59,0,0,0,.59,66.72Z"/><path class="cls-3" d="M6,51.23a.51.51,0,0,0,0,1,.51.51,0,0,0,0-1Z"/><path class="cls-3" d="M22.43,42.9a.59.59,0,0,0-.58.59.58.58,0,1,0,1.16,0A.59.59,0,0,0,22.43,42.9Z"/><path class="cls-3" d="M22,24.89a.51.51,0,1,0-.5-.51A.5.5,0,0,0,22,24.89Z"/><path class="cls-3" d="M34.36,10.68a.5.5,0,0,0-.5.5.5.5,0,1,0,1,0A.49.49,0,0,0,34.36,10.68Z"/><path class="cls-3" d="M443.36,280.8a.6.6,0,1,0,.6.6A.6.6,0,0,0,443.36,280.8Z"/><path class="cls-3" d="M454.48,265.9a.6.6,0,1,0,.6.6A.6.6,0,0,0,454.48,265.9Z"/><path class="cls-3" d="M469.12,267.51a.54.54,0,1,0,.54.54A.54.54,0,0,0,469.12,267.51Z"/><path class="cls-3" d="M95.39,12.83a.56.56,0,1,0,.55.56A.56.56,0,0,0,95.39,12.83Z"/><path class="cls-3" d="M111,2.42a.44.44,0,1,0,.45.44A.44.44,0,0,0,111,2.42Z"/><path class="cls-3" d="M122.7,25.52a.58.58,0,1,0,0,1.16.58.58,0,0,0,0-1.16Z"/><path class="cls-3" d="M140,14.86a.58.58,0,1,0-.58.57A.58.58,0,0,0,140,14.86Z"/><circle class="cls-3" cx="153.11" cy="19.18" r="0.56"/><path class="cls-3" d="M167.9,15.66a.53.53,0,0,0-.52.52.52.52,0,0,0,.52.52.52.52,0,0,0,.52-.52A.52.52,0,0,0,167.9,15.66Z"/><path class="cls-3" d="M151.53,55.22a.56.56,0,0,0-.56-.56.56.56,0,0,0,0,1.11A.56.56,0,0,0,151.53,55.22Z"/><path class="cls-3" d="M167.38,39.44a.51.51,0,0,0-.5.5.5.5,0,0,0,.5.5.5.5,0,0,0,.5-.5A.5.5,0,0,0,167.38,39.44Z"/><path class="cls-3" d="M221.5,15.27a.53.53,0,0,0-.53.53.53.53,0,0,0,.53.53.52.52,0,0,0,.53-.53A.53.53,0,0,0,221.5,15.27Z"/><path class="cls-3" d="M235.85,5a.61.61,0,0,0-.62.61.62.62,0,1,0,1.23,0A.61.61,0,0,0,235.85,5Z"/><path class="cls-3" d="M258.87,14a.61.61,0,1,0-.6-.6A.6.6,0,0,0,258.87,14Z"/><path class="cls-3" d="M271.14,16.16a.59.59,0,0,0,0,1.18.59.59,0,1,0,0-1.18Z"/><path class="cls-3" d="M286.11,21.59a.59.59,0,1,0,.58.59A.58.58,0,0,0,286.11,21.59Z"/><path class="cls-3" d="M301,20.39a.62.62,0,1,0,.62.62A.62.62,0,0,0,301,20.39Z"/><path class="cls-3" d="M317.36,6.73a.56.56,0,1,0-1.11,0,.56.56,0,0,0,1.11,0Z"/><path class="cls-3" d="M329.31,33.29a.55.55,0,0,0-.55-.55.55.55,0,0,0-.54.55.54.54,0,0,0,.54.54A.55.55,0,0,0,329.31,33.29Z"/><path class="cls-3" d="M345.09,15.8a.57.57,0,1,0,0,1.14.57.57,0,0,0,0-1.14Z"/><path class="cls-3" d="M355.09,23.17a.62.62,0,1,0,.62.61A.62.62,0,0,0,355.09,23.17Z"/><path class="cls-3" d="M207,53.73a.53.53,0,1,0,0-1,.53.53,0,0,0,0,1Z"/><path class="cls-3" d="M203.29,66.47a.54.54,0,0,0,.54-.53.54.54,0,1,0-.54.53Z"/><path class="cls-3" d="M225.22,42.59a.52.52,0,1,0-.51-.51A.51.51,0,0,0,225.22,42.59Z"/><path class="cls-3" d="M238.19,50.15a.47.47,0,1,0,.47.47A.47.47,0,0,0,238.19,50.15Z"/><path class="cls-3" d="M249.17,63a.62.62,0,1,0,.63.62A.62.62,0,0,0,249.17,63Z"/><path class="cls-3" d="M459.14,3.17a.56.56,0,1,0,.55.56A.56.56,0,0,0,459.14,3.17Z"/><path class="cls-3" d="M459,23.78a.47.47,0,1,0,.47.47A.47.47,0,0,0,459,23.78Z"/><path class="cls-3" d="M269.82,100.33a.5.5,0,1,0,.49.49A.49.49,0,0,0,269.82,100.33Z"/><path class="cls-3" d="M460.09,88.46a.5.5,0,1,0,.5.49A.49.49,0,0,0,460.09,88.46Z"/><path class="cls-3" d="M445,108.88a.59.59,0,0,0-.59-.59.59.59,0,1,0,0,1.18A.59.59,0,0,0,445,108.88Z"/><path class="cls-3" d="M459.06,119.91a.5.5,0,0,0-.5.5.51.51,0,1,0,.5-.5Z"/><path class="cls-3" d="M462.8,134.2a.45.45,0,1,0,0,.89.45.45,0,1,0,0-.89Z"/><path class="cls-3" d="M453.22,149.71a.52.52,0,1,0-.51.51A.51.51,0,0,0,453.22,149.71Z"/><path class="cls-3" d="M415.29,135.07a.59.59,0,1,0,.58.58A.58.58,0,0,0,415.29,135.07Z"/><path class="cls-3" d="M411.61,149.38a.58.58,0,1,0,.58.58A.58.58,0,0,0,411.61,149.38Z"/><path class="cls-3" d="M405,163.15a.6.6,0,1,0,.6.6A.6.6,0,0,0,405,163.15Z"/><path class="cls-3" d="M448,205.54a.5.5,0,0,0-.51.5.51.51,0,1,0,1,0A.5.5,0,0,0,448,205.54Z"/><path class="cls-3" d="M445.06,219.84a.48.48,0,0,0-.49.49.49.49,0,0,0,1,0A.48.48,0,0,0,445.06,219.84Z"/><circle class="cls-3" cx="422.42" cy="223.54" r="0.6"/><path class="cls-3" d="M416.46,236.73a.57.57,0,0,0-.57.57.58.58,0,0,0,.57.57.57.57,0,0,0,.57-.57A.56.56,0,0,0,416.46,236.73Z"/><path class="cls-3" d="M408.4,245.54a.5.5,0,0,0-.5.5.5.5,0,0,0,.5.5.5.5,0,0,0,.5-.5A.51.51,0,0,0,408.4,245.54Z"/><path class="cls-3" d="M397.44,255.64a.58.58,0,1,0,.58.58A.58.58,0,0,0,397.44,255.64Z"/><circle class="cls-3" cx="396.64" cy="281.44" r="0.53"/><path class="cls-3" d="M375.71,268.61a.58.58,0,1,0,.58.58A.58.58,0,0,0,375.71,268.61Z"/><path class="cls-3" d="M365.62,286.77a.61.61,0,1,0,.6.61A.61.61,0,0,0,365.62,286.77Z"/><path class="cls-3" d="M351,289.35a.5.5,0,1,0,.49.5A.5.5,0,0,0,351,289.35Z"/><path class="cls-3" d="M335.31,295.85a.46.46,0,0,0-.46.46.46.46,0,0,0,.92,0A.46.46,0,0,0,335.31,295.85Z"/><path class="cls-3" d="M321.23,272.73a.59.59,0,1,0,0,1.17.59.59,0,0,0,0-1.17Z"/><path class="cls-3" d="M307,274a.47.47,0,0,0-.46.47.47.47,0,0,0,.93,0A.47.47,0,0,0,307,274Z"/><path class="cls-3" d="M290,291.43a.57.57,0,0,0-.57.57.58.58,0,1,0,1.15,0A.57.57,0,0,0,290,291.43Z"/><circle class="cls-3" cx="275.3" cy="286.02" r="0.63"/><path class="cls-3" d="M262.36,277.83a.47.47,0,1,0,.46.46A.46.46,0,0,0,262.36,277.83Z"/><path class="cls-3" d="M245.54,287.21a.56.56,0,1,0,.56.56A.56.56,0,0,0,245.54,287.21Z"/><path class="cls-3" d="M231.39,285.05a.59.59,0,0,0-.59.59.58.58,0,0,0,.59.59.59.59,0,0,0,.59-.59A.6.6,0,0,0,231.39,285.05Z"/><circle class="cls-3" cx="218.41" cy="274.42" r="0.48"/><path class="cls-3" d="M208,259.4a.63.63,0,0,0,0,1.26.63.63,0,0,0,0-1.26Z"/><path class="cls-3" d="M198.82,243.41a.44.44,0,0,0-.43.44.44.44,0,0,0,.87,0A.44.44,0,0,0,198.82,243.41Z"/><path class="cls-3" d="M186.17,238.19a.52.52,0,1,0,.52.51A.51.51,0,0,0,186.17,238.19Z"/><path class="cls-3" d="M167,246.39a.45.45,0,1,0,.45.45A.45.45,0,0,0,167,246.39Z"/><path class="cls-3" d="M155.81,235.36a.44.44,0,1,0,0-.88.44.44,0,1,0,0,.88Z"/><path class="cls-3" d="M135,205.73a.63.63,0,1,0,0,1.26.63.63,0,1,0,0-1.26Z"/><circle class="cls-3" cx="126.21" cy="186.46" r="0.45"/><path class="cls-3" d="M111.92,185.62a.49.49,0,0,0-1,0,.49.49,0,1,0,1,0Z"/><path class="cls-3" d="M94.54,232.06a.5.5,0,0,0,0,1,.5.5,0,1,0,0-1Z"/><path class="cls-3" d="M85.36,214.75a.6.6,0,0,0-.6.6.6.6,0,0,0,1.2,0A.6.6,0,0,0,85.36,214.75Z"/><path class="cls-3" d="M72.7,206.83a.45.45,0,1,0,.44.45A.45.45,0,0,0,72.7,206.83Z"/><path class="cls-3" d="M49.41,231.1a.44.44,0,0,0-.45.44.45.45,0,0,0,.89,0A.44.44,0,0,0,49.41,231.1Z"/><path class="cls-3" d="M44.4,198.68a.6.6,0,0,0,0,1.19.6.6,0,1,0,0-1.19Z"/><path class="cls-3" d="M32.77,187.83a.5.5,0,0,0-.5.5.5.5,0,0,0,.5.51.51.51,0,0,0,.51-.51A.5.5,0,0,0,32.77,187.83Z"/><path class="cls-3" d="M388.15,203.57a.48.48,0,0,0-.48.48.47.47,0,0,0,.48.48.48.48,0,0,0,.48-.48A.49.49,0,0,0,388.15,203.57Z"/><path class="cls-3" d="M382.44,189.51a.51.51,0,1,0,.51.51A.51.51,0,0,0,382.44,189.51Z"/><path class="cls-3" d="M367.28,179.4a.49.49,0,0,0-.49-.49.5.5,0,0,0,0,1A.49.49,0,0,0,367.28,179.4Z"/><circle class="cls-3" cx="363.18" cy="165.3" r="0.57"/><path class="cls-3" d="M356,156.54a.62.62,0,1,0,.62.62A.63.63,0,0,0,356,156.54Z"/><path class="cls-3" d="M366.25,120.41a.59.59,0,1,0-.58.58A.58.58,0,0,0,366.25,120.41Z"/><circle class="cls-3" cx="185.69" cy="130.69" r="0.44"/><path class="cls-3" d="M158.28,178.42a.62.62,0,1,0-.17.85A.62.62,0,0,0,158.28,178.42Z"/><path class="cls-3" d="M117.16,166.56a.49.49,0,0,0-.66-.13.48.48,0,0,0,.53.79A.48.48,0,0,0,117.16,166.56Z"/><path class="cls-3" d="M119,151.45a.63.63,0,0,0-.87-.17.62.62,0,0,0-.17.87.63.63,0,0,0,.87.17A.64.64,0,0,0,119,151.45Z"/><path class="cls-3" d="M109.41,138.09a.58.58,0,0,0-1,.65.58.58,0,1,0,1-.65Z"/><path class="cls-3" d="M179.34,103.05a.6.6,0,1,0-.16.84A.61.61,0,0,0,179.34,103.05Z"/><path class="cls-3" d="M322.61,77.47a.6.6,0,0,0-1,.67.6.6,0,1,0,1-.67Z"/><path class="cls-3" d="M329,61.84a.59.59,0,0,0-.82-.16.59.59,0,0,0,.66,1A.6.6,0,0,0,329,61.84Z"/><path class="cls-3" d="M116,81a.47.47,0,0,0-.66-.13.46.46,0,0,0-.13.65.47.47,0,0,0,.66.13A.46.46,0,0,0,116,81Z"/><path class="cls-3" d="M110,69.78a.63.63,0,1,0-.18.88A.64.64,0,0,0,110,69.78Z"/><path class="cls-3" d="M117.13,51.44a.64.64,0,1,0-.18.88A.63.63,0,0,0,117.13,51.44Z"/><path class="cls-3" d="M318.78,211.87a.63.63,0,1,0,.63.63A.63.63,0,0,0,318.78,211.87Z"/><path class="cls-3" d="M451.83,28.75a.56.56,0,1,0-.56.56A.56.56,0,0,0,451.83,28.75Z"/><path class="cls-3" d="M435.39,27.14a.45.45,0,0,0-.45.45.45.45,0,1,0,.89,0A.45.45,0,0,0,435.39,27.14Z"/><path class="cls-3" d="M251.6,46a.53.53,0,1,0,.53.53A.53.53,0,0,0,251.6,46Z"/><path class="cls-3" d="M272.33,152.84a.52.52,0,1,0-.52-.51A.51.51,0,0,0,272.33,152.84Z"/><path class="cls-3" d="M285.3,160.4a.47.47,0,1,0,.47.47A.47.47,0,0,0,285.3,160.4Z"/><path class="cls-3" d="M296.28,173.25a.63.63,0,1,0,.62.62A.62.62,0,0,0,296.28,173.25Z"/><path class="cls-3" d="M298.71,156.21a.53.53,0,0,0,0,1.06.53.53,0,0,0,0-1.06Z"/><path class="cls-3" d="M407.66,16.39a.44.44,0,0,0-.44.43.44.44,0,1,0,.88,0A.44.44,0,0,0,407.66,16.39Z"/><path class="cls-3" d="M401.19.54a.54.54,0,0,0-.54-.54.55.55,0,0,0-.55.54.55.55,0,0,0,.55.55A.55.55,0,0,0,401.19.54Z"/><path class="cls-3" d="M239.33,176a.52.52,0,1,0-.51.52A.51.51,0,0,0,239.33,176Z"/><path class="cls-3" d="M61.86,119.12a.44.44,0,0,0-.61-.12.44.44,0,1,0,.49.74A.44.44,0,0,0,61.86,119.12Z"/><path class="cls-3" d="M210.48,166a.57.57,0,1,0,.57.57A.56.56,0,0,0,210.48,166Z"/><path class="cls-3" d="M53.44,90.42a.56.56,0,0,0-.79-.15.55.55,0,0,0-.15.78.57.57,0,1,0,.94-.63Z"/><path class="cls-3" d="M48.87,75.73a.44.44,0,1,0-.12.61A.45.45,0,0,0,48.87,75.73Z"/><path class="cls-3" d="M52.55,61.2a.53.53,0,0,0-.73-.14.52.52,0,0,0-.15.73.53.53,0,0,0,.73.15A.54.54,0,0,0,52.55,61.2Z"/><path class="cls-3" d="M48.64,47.32a.51.51,0,0,0-.85.57.51.51,0,1,0,.85-.57Z"/><path class="cls-3" d="M482.7,322.47a.58.58,0,1,0,.58.58A.58.58,0,0,0,482.7,322.47Z"/><path class="cls-3" d="M468.19,312.35a.57.57,0,1,0,.57.57A.57.57,0,0,0,468.19,312.35Z"/><path class="cls-3" d="M453.19,336.72a.5.5,0,1,0,.5.5A.49.49,0,0,0,453.19,336.72Z"/><path class="cls-3" d="M439.59,320.57a.51.51,0,0,0-.51-.51.51.51,0,0,0,0,1A.51.51,0,0,0,439.59,320.57Z"/><path class="cls-3" d="M424.86,326.71a.47.47,0,1,0,.47.47A.47.47,0,0,0,424.86,326.71Z"/><path class="cls-3" d="M410.66,317.62a.52.52,0,1,0-.52.52A.52.52,0,0,0,410.66,317.62Z"/><path class="cls-3" d="M395.85,332.1a.55.55,0,1,0,.55.55A.55.55,0,0,0,395.85,332.1Z"/><path class="cls-3" d="M390.05,192.22a.6.6,0,0,0-.6.6.61.61,0,1,0,1.21,0A.6.6,0,0,0,390.05,192.22Z"/><path class="cls-3" d="M386.37,211.32a.46.46,0,1,0,0,.91.46.46,0,0,0,0-.91Z"/><path class="cls-3" d="M365.79,208.29a.47.47,0,0,0,0,.93.47.47,0,0,0,0-.93Z"/><path class="cls-3" d="M365.35,232.42a.44.44,0,0,0,0-.88.44.44,0,1,0,0,.88Z"/><path class="cls-3" d="M332.83,223.3a.63.63,0,1,0,.62.62A.63.63,0,0,0,332.83,223.3Z"/><circle class="cls-3" cx="329.21" cy="238.71" r="0.48"/><path class="cls-3" d="M468.27,57.88a.46.46,0,0,0-.46-.45.45.45,0,0,0,0,.9A.46.46,0,0,0,468.27,57.88Z"/><path class="cls-3" d="M456.21,66.39a.44.44,0,0,0-.44.44.44.44,0,0,0,.44.43.43.43,0,0,0,.43-.43A.44.44,0,0,0,456.21,66.39Z"/><path class="cls-3" d="M472.45,20.19a.6.6,0,0,0,0,1.2.6.6,0,0,0,0-1.2Z"/><path class="cls-3" d="M456.66,23.14a.54.54,0,1,0,.53.54A.54.54,0,0,0,456.66,23.14Z"/><path class="cls-3" d="M262.05,111a.46.46,0,1,0,.46.46A.45.45,0,0,0,262.05,111Z"/><path class="cls-3" d="M240.93,105.78a.44.44,0,0,0-.44.44.44.44,0,0,0,.44.44.44.44,0,0,0,.44-.44A.43.43,0,0,0,240.93,105.78Z"/><path class="cls-3" d="M237.56,121.53a.62.62,0,1,0,0,1.23.62.62,0,0,0,0-1.23Z"/><path class="cls-3" d="M225.44,130.59a.63.63,0,1,0,.62.63A.63.63,0,0,0,225.44,130.59Z"/></g><path class="cls-4" d="M248.8,287.52a3.93,3.93,0,0,0-1.15,3.11c.11,2,.21,2.57.67,2.84s1,.29,2.12-.1a3.82,3.82,0,0,0,1.91-1.6c.81-.5,1.15-1.74.63-3.25A2.72,2.72,0,0,0,248.8,287.52Z"/><path class="cls-4" d="M249.75,291.9a3.4,3.4,0,0,1,.71,1.7c.1,1-2.21,3.43-2.43,4.29s.3,2.36,0,3.68-.73,2.13-1.16,2.17-6.1-6.7-7.92-6.32-6.47,5.21-8.7,6.21a9.24,9.24,0,0,1-5,.85c-1.2-.09-.74-.06-.59.46s1.43,1.4,2.79,1.47,2.44,1.06,3.07.56.53-1.83,1.94-2.36,5.25-2,5.8-2.72,1-1,1.32-.69a51.73,51.73,0,0,1,3.15,5.11c1.31,2.31,1.88,4.24,5.06,3.35s4.74-2.93,5.67-6,.78-4.37,1.38-6,1.08-3.22.21-3.91-2.21-.56-2.52-1.38-.68-1.74-.68-1.74Z"/><path class="cls-4" d="M250.26,294.26c-.62.22-3.86,2-4.21,1.72s-4.53-3.64-4.92-4.41-.77-1.87-1.14-2.1a2.89,2.89,0,0,0-2,.06c-.29.24.27.72.7,1.06a4,4,0,0,1,1.24,1.18,6.21,6.21,0,0,0,.79,1.06c.3.43,3.94,5.15,4.53,5.29s3.74.3,5.23-1S252.35,293.52,250.26,294.26Z"/><path class="cls-4" d="M252.36,295.84c.64.26,4.37,1.1,4.45,1.54s1,5.93.8,6.8a8.24,8.24,0,0,0-.55,2.4,2.93,2.93,0,0,0,1.57,1.3c.39,0,.29-.74.19-1.29a4,4,0,0,1-.16-1.77,6.87,6.87,0,0,0,.11-1.36c.06-.54.47-6.69.11-7.21s-2.7-2.78-4.76-2.8S250.24,295,252.36,295.84Z"/><path class="cls-4" d="M244.75,305a.54.54,0,0,1,0,.22c-.17.39-8.82,2-9.39,3.81s1.38,8.19,1.16,10.63a9.31,9.31,0,0,1-1.69,4.76c-.67,1-.42.61.11.74a3.5,3.5,0,0,0,2.64-1.72c.74-1.14,2.12-1.6,2-2.4s-1.34-1.36-1.12-2.85.8-5.57.47-6.39-.36-1.35.05-1.49a22.75,22.75,0,0,1,6-.24c2.39.23,4.95-.18,5.84-2.6C249,306,246.05,305.49,244.75,305Z"/><polygon class="cls-5" points="205.52 168.04 277.64 168.04 313.97 423.65 169.18 423.65 205.52 168.04"/><polygon class="cls-6" points="224.39 168.04 258.76 168.04 289.64 423.65 193.51 423.65 224.39 168.04"/><path class="cls-7" d="M197,164l-7.95,8.88v4.36s4.45,11.16,15.36,16.25h3.4a30.76,30.76,0,0,1-6.65-18.75L211.64,164Z"/><path class="cls-8" d="M201.58,179.36a29.41,29.41,0,0,1-.39-4.6L211.64,164H197l-7.95,8.88v1.72Z"/><path class="cls-9" d="M286.13,164l7.94,8.88v4.36s-4.44,11.16-15.36,16.25h-3.4A30.76,30.76,0,0,0,282,174.76L271.52,164Z"/><path class="cls-10" d="M281.57,179.36a28.25,28.25,0,0,0,.39-4.6L271.52,164h14.61l7.94,8.88v1.72Z"/><rect class="cls-11" x="205.81" y="161.34" width="71.54" height="14" rx="2.8"/><rect class="cls-12" x="209.6" y="161.34" width="0.93" height="14"/><rect class="cls-12" x="216.6" y="161.34" width="0.93" height="14"/><rect class="cls-12" x="223.6" y="161.34" width="0.94" height="14"/><rect class="cls-12" x="230.61" y="161.34" width="0.93" height="14"/><rect class="cls-12" x="237.61" y="161.34" width="0.93" height="14"/><rect class="cls-12" x="244.61" y="161.34" width="0.93" height="14"/><rect class="cls-12" x="251.61" y="161.34" width="0.93" height="14"/><rect class="cls-12" x="258.62" y="161.34" width="0.93" height="14"/><rect class="cls-12" x="265.62" y="161.34" width="0.93" height="14"/><rect class="cls-12" x="272.62" y="161.34" width="0.93" height="14"/><path class="cls-13" d="M310,146.5v-4.66a68.43,68.43,0,0,0-136.85,0v4.66Z"/><path class="cls-14" d="M191.12,119.87a4.91,4.91,0,0,1-2.39-.61,5,5,0,0,1-2-6.78A61.34,61.34,0,0,1,215.57,86a5,5,0,1,1,4.07,9.13,51.44,51.44,0,0,0-24.13,22.12A5,5,0,0,1,191.12,119.87Zm41.17-28.58c.76-.13,1.52-.24,2.28-.34A5,5,0,0,0,233.3,81c-.91.12-1.81.26-2.71.41a5,5,0,0,0,.85,9.93A4.89,4.89,0,0,0,232.29,91.29Z"/><path class="cls-15" d="M241.58,144.72H310v-2.88a68.14,68.14,0,0,0-5.53-27,14.36,14.36,0,0,1-5.89,1.23h-114a14.33,14.33,0,0,1-5.89-1.23,68.14,68.14,0,0,0-5.54,27v2.88Z"/><path class="cls-16" d="M315,120.41c-6-1.26-8.21,4.88-16.46,4.88h-114c-8.25,0-10.42-6.14-16.46-4.88s-34.79,9.85-45.32,33.51H360.35C349.83,130.26,321.08,121.67,315,120.41Z"/><path class="cls-17" d="M241.58,153.92H122.8s17.63,16,48.33,16H312c30.7,0,48.33-16,48.33-16Z"/><path class="cls-14" d="M351.08,153.92l-34.22.28-35.08.15-40.2.07-40.21-.07-35.07-.15-34.22-.28,34.22-.28,35.07-.15,40.21-.07,40.2.07,35.08.15Z"/><rect class="cls-18" x="190.98" y="139.45" width="101.19" height="6.43" rx="3"/><path class="cls-19" d="M229.83,141.86a.82.82,0,0,1-.82.81H195a.81.81,0,0,1-.81-.81h0A.82.82,0,0,1,195,141h34a.82.82,0,0,1,.82.82Z"/></g></g></g></svg>